# xmcd
#
# Track frame offsets:
#	150
#	14585
#	31955
#	51114
#	66861
#	83741
#	95015
#	116051
#	136404
#	155024
#	167258
#
# Disc length: 2542 seconds
#
# Revision: 0
# Processed by: cddbd v1.4PL0 Copyright (c) Steve Scherf et al.
# Submitted via: EasyCDDAExtractor 4.6.9.1
#
DISCID=8d09ec0b
DTITLE=Swamp Things - Catfish Row
DYEAR=1999
DGENRE=Blues
TTITLE0=Kansas City
TTITLE1=Rag Mama
TTITLE2=Preaching Blues
TTITLE3=Stop Breaking Down
TTITLE4=Rambling On My Mind
TTITLE5=Owning Your Own Shadow
TTITLE6=Keeping Slim
TTITLE7=I Can't Be Satisfied
TTITLE8=Mystery Train
TTITLE9=Drinking All My Troubles Away
TTITLE10=F-Hole Blues
EXTD=
EXTT0=
EXTT1=
EXTT2=
EXTT3=
EXTT4=
EXTT5=
EXTT6=
EXTT7=
EXTT8=
EXTT9=
EXTT10=
PLAYORDER=
